G75*
%MOIN*%
%OFA0B0*%
%FSLAX24Y24*%
%IPPOS*%
%LPD*%
%AMOC8*
5,1,8,0,0,1.08239X$1,22.5*
%
%ADD10C,0.0040*%
%ADD11C,0.0050*%
%ADD12C,0.0060*%
%ADD13C,0.0080*%
%ADD14C,0.0010*%
D10*
X013935Y009102D02*
X013992Y009045D01*
X014218Y009045D01*
X014275Y009102D01*
X014275Y009215D01*
X014218Y009272D01*
X014105Y009272D01*
X014105Y009159D01*
X013992Y009272D02*
X013935Y009215D01*
X013935Y009102D01*
X013935Y009395D02*
X014275Y009622D01*
X013935Y009622D01*
X013935Y009745D02*
X013935Y009915D01*
X013992Y009972D01*
X014218Y009972D01*
X014275Y009915D01*
X014275Y009745D01*
X013935Y009745D01*
X013935Y009395D02*
X014275Y009395D01*
X014275Y010145D02*
X013935Y010145D01*
X013935Y010315D01*
X013992Y010372D01*
X014105Y010372D01*
X014162Y010315D01*
X014162Y010145D01*
X014162Y010259D02*
X014275Y010372D01*
X014275Y010495D02*
X013935Y010495D01*
X014275Y010722D01*
X013935Y010722D01*
X013992Y010845D02*
X014218Y010845D01*
X014275Y010902D01*
X014275Y011015D01*
X014218Y011072D01*
X014105Y011072D01*
X014105Y010958D01*
X013992Y010845D02*
X013935Y010902D01*
X013935Y011015D01*
X013992Y011072D01*
X013935Y011203D02*
X013935Y011430D01*
X013935Y011317D02*
X014275Y011317D01*
X014275Y011553D02*
X014275Y011667D01*
X014275Y011610D02*
X013935Y011610D01*
X013935Y011553D02*
X013935Y011667D01*
X013935Y011787D02*
X013935Y011957D01*
X013992Y012013D01*
X014105Y012013D01*
X014162Y011957D01*
X014162Y011787D01*
X014275Y011787D02*
X013935Y011787D01*
X013935Y012195D02*
X013935Y012365D01*
X013992Y012422D01*
X014105Y012422D01*
X014162Y012365D01*
X014162Y012195D01*
X014275Y012195D02*
X013935Y012195D01*
X014162Y012309D02*
X014275Y012422D01*
X014218Y012545D02*
X014275Y012602D01*
X014275Y012715D01*
X014218Y012772D01*
X014162Y012772D01*
X014105Y012715D01*
X014105Y012602D01*
X014048Y012545D01*
X013992Y012545D01*
X013935Y012602D01*
X013935Y012715D01*
X013992Y012772D01*
X013935Y012895D02*
X014275Y012895D01*
X014105Y012895D02*
X014105Y013122D01*
X013935Y013122D02*
X014275Y013122D01*
X014275Y013359D02*
X013935Y013359D01*
X013935Y013472D02*
X013935Y013245D01*
X013992Y013595D02*
X014048Y013595D01*
X014105Y013652D01*
X014105Y013765D01*
X014162Y013822D01*
X014218Y013822D01*
X014275Y013765D01*
X014275Y013652D01*
X014218Y013595D01*
X013992Y013595D02*
X013935Y013652D01*
X013935Y013765D01*
X013992Y013822D01*
X013935Y013945D02*
X014275Y013945D01*
X014105Y013945D02*
X014105Y014172D01*
X013935Y014172D02*
X014275Y014172D01*
D11*
X014455Y013200D02*
X013755Y013200D01*
X013755Y012100D02*
X014455Y012100D01*
X014455Y011150D02*
X013755Y011150D01*
X013755Y010050D02*
X014455Y010050D01*
D12*
X013758Y009336D02*
X008246Y009336D01*
X008246Y013864D01*
X013758Y013864D01*
X013758Y009336D01*
D13*
X014455Y009100D02*
X015455Y009100D01*
X015455Y014100D01*
X014455Y014100D01*
X014455Y009100D01*
X015467Y008155D02*
X015467Y010911D01*
X017687Y010911D01*
X017687Y008155D01*
X018222Y008155D01*
X018222Y010911D01*
X017687Y010911D01*
X017687Y015045D01*
X015467Y015045D01*
X015467Y010911D01*
X017687Y010911D01*
X018222Y010911D01*
X018222Y015045D01*
X017687Y015045D01*
X017687Y008155D02*
X015467Y008155D01*
D14*
X011305Y008578D02*
X011305Y007650D01*
X011579Y007650D01*
X011579Y007920D01*
X011529Y007946D01*
X011529Y008228D01*
X011577Y008268D01*
X011577Y008286D01*
X011777Y008286D01*
X011777Y008270D01*
X011603Y008270D01*
X011581Y008270D01*
X011581Y008292D01*
X011603Y008292D01*
X011603Y008384D01*
X011631Y008410D01*
X011757Y008410D01*
X011779Y008388D01*
X011779Y008270D01*
X011809Y008270D01*
X011857Y008230D01*
X011857Y007946D01*
X011807Y007922D01*
X011807Y007648D01*
X012081Y007648D01*
X012081Y008578D01*
X011305Y008578D01*
X011305Y008571D02*
X012081Y008571D01*
X012081Y008562D02*
X011305Y008562D01*
X011305Y008554D02*
X012081Y008554D01*
X012081Y008545D02*
X011305Y008545D01*
X011305Y008537D02*
X012081Y008537D01*
X012081Y008528D02*
X011305Y008528D01*
X011305Y008520D02*
X012081Y008520D01*
X012081Y008511D02*
X011305Y008511D01*
X011305Y008503D02*
X012081Y008503D01*
X012081Y008494D02*
X011305Y008494D01*
X011305Y008486D02*
X012081Y008486D01*
X012081Y008477D02*
X011305Y008477D01*
X011305Y008469D02*
X012081Y008469D01*
X012081Y008460D02*
X011305Y008460D01*
X011305Y008452D02*
X012081Y008452D01*
X012081Y008443D02*
X011305Y008443D01*
X011305Y008435D02*
X012081Y008435D01*
X012081Y008426D02*
X011305Y008426D01*
X011305Y008418D02*
X012081Y008418D01*
X012081Y008409D02*
X011758Y008409D01*
X011767Y008401D02*
X012081Y008401D01*
X012081Y008392D02*
X011775Y008392D01*
X011779Y008384D02*
X012081Y008384D01*
X012081Y008375D02*
X011779Y008375D01*
X011779Y008367D02*
X012081Y008367D01*
X012081Y008358D02*
X011779Y008358D01*
X011779Y008350D02*
X012081Y008350D01*
X012081Y008341D02*
X011779Y008341D01*
X011779Y008333D02*
X012081Y008333D01*
X012081Y008324D02*
X011779Y008324D01*
X011779Y008316D02*
X012081Y008316D01*
X012081Y008307D02*
X011779Y008307D01*
X011779Y008299D02*
X012081Y008299D01*
X012081Y008290D02*
X011779Y008290D01*
X011779Y008282D02*
X012081Y008282D01*
X012081Y008273D02*
X011779Y008273D01*
X011777Y008273D02*
X011581Y008273D01*
X011577Y008273D02*
X011305Y008273D01*
X011305Y008265D02*
X011573Y008265D01*
X011563Y008256D02*
X011305Y008256D01*
X011305Y008248D02*
X011553Y008248D01*
X011542Y008239D02*
X011305Y008239D01*
X011305Y008231D02*
X011532Y008231D01*
X011529Y008222D02*
X011305Y008222D01*
X011305Y008214D02*
X011529Y008214D01*
X011529Y008205D02*
X011305Y008205D01*
X011305Y008197D02*
X011529Y008197D01*
X011529Y008188D02*
X011305Y008188D01*
X011305Y008180D02*
X011529Y008180D01*
X011529Y008171D02*
X011305Y008171D01*
X011305Y008163D02*
X011529Y008163D01*
X011529Y008154D02*
X011305Y008154D01*
X011305Y008146D02*
X011529Y008146D01*
X011529Y008137D02*
X011305Y008137D01*
X011305Y008129D02*
X011529Y008129D01*
X011529Y008120D02*
X011305Y008120D01*
X011305Y008112D02*
X011529Y008112D01*
X011529Y008103D02*
X011305Y008103D01*
X011305Y008095D02*
X011529Y008095D01*
X011529Y008086D02*
X011305Y008086D01*
X011305Y008078D02*
X011529Y008078D01*
X011529Y008069D02*
X011305Y008069D01*
X011305Y008061D02*
X011529Y008061D01*
X011529Y008052D02*
X011305Y008052D01*
X011305Y008044D02*
X011529Y008044D01*
X011529Y008035D02*
X011305Y008035D01*
X011305Y008027D02*
X011529Y008027D01*
X011529Y008018D02*
X011305Y008018D01*
X011305Y008010D02*
X011529Y008010D01*
X011529Y008001D02*
X011305Y008001D01*
X011305Y007993D02*
X011529Y007993D01*
X011529Y007984D02*
X011305Y007984D01*
X011305Y007976D02*
X011529Y007976D01*
X011529Y007967D02*
X011305Y007967D01*
X011305Y007959D02*
X011529Y007959D01*
X011529Y007950D02*
X011305Y007950D01*
X011305Y007942D02*
X011538Y007942D01*
X011554Y007933D02*
X011305Y007933D01*
X011305Y007925D02*
X011570Y007925D01*
X011579Y007916D02*
X011305Y007916D01*
X011305Y007908D02*
X011579Y007908D01*
X011579Y007899D02*
X011305Y007899D01*
X011305Y007891D02*
X011579Y007891D01*
X011579Y007882D02*
X011305Y007882D01*
X011305Y007874D02*
X011579Y007874D01*
X011579Y007865D02*
X011305Y007865D01*
X011305Y007857D02*
X011579Y007857D01*
X011579Y007848D02*
X011305Y007848D01*
X011305Y007840D02*
X011579Y007840D01*
X011579Y007831D02*
X011305Y007831D01*
X011305Y007823D02*
X011579Y007823D01*
X011579Y007814D02*
X011305Y007814D01*
X011305Y007806D02*
X011579Y007806D01*
X011579Y007797D02*
X011305Y007797D01*
X011305Y007789D02*
X011579Y007789D01*
X011579Y007780D02*
X011305Y007780D01*
X011305Y007772D02*
X011579Y007772D01*
X011579Y007763D02*
X011305Y007763D01*
X011305Y007755D02*
X011579Y007755D01*
X011579Y007746D02*
X011305Y007746D01*
X011305Y007738D02*
X011579Y007738D01*
X011579Y007729D02*
X011305Y007729D01*
X011305Y007721D02*
X011579Y007721D01*
X011579Y007712D02*
X011305Y007712D01*
X011305Y007704D02*
X011579Y007704D01*
X011579Y007695D02*
X011305Y007695D01*
X011305Y007687D02*
X011579Y007687D01*
X011579Y007678D02*
X011305Y007678D01*
X011305Y007670D02*
X011579Y007670D01*
X011579Y007661D02*
X011305Y007661D01*
X011305Y007653D02*
X011579Y007653D01*
X011807Y007653D02*
X012081Y007653D01*
X012081Y007661D02*
X011807Y007661D01*
X011807Y007670D02*
X012081Y007670D01*
X012081Y007678D02*
X011807Y007678D01*
X011807Y007687D02*
X012081Y007687D01*
X012081Y007695D02*
X011807Y007695D01*
X011807Y007704D02*
X012081Y007704D01*
X012081Y007712D02*
X011807Y007712D01*
X011807Y007721D02*
X012081Y007721D01*
X012081Y007729D02*
X011807Y007729D01*
X011807Y007738D02*
X012081Y007738D01*
X012081Y007746D02*
X011807Y007746D01*
X011807Y007755D02*
X012081Y007755D01*
X012081Y007763D02*
X011807Y007763D01*
X011807Y007772D02*
X012081Y007772D01*
X012081Y007780D02*
X011807Y007780D01*
X011807Y007789D02*
X012081Y007789D01*
X012081Y007797D02*
X011807Y007797D01*
X011807Y007806D02*
X012081Y007806D01*
X012081Y007814D02*
X011807Y007814D01*
X011807Y007823D02*
X012081Y007823D01*
X012081Y007831D02*
X011807Y007831D01*
X011807Y007840D02*
X012081Y007840D01*
X012081Y007848D02*
X011807Y007848D01*
X011807Y007857D02*
X012081Y007857D01*
X012081Y007865D02*
X011807Y007865D01*
X011807Y007874D02*
X012081Y007874D01*
X012081Y007882D02*
X011807Y007882D01*
X011807Y007891D02*
X012081Y007891D01*
X012081Y007899D02*
X011807Y007899D01*
X011807Y007908D02*
X012081Y007908D01*
X012081Y007916D02*
X011807Y007916D01*
X011812Y007925D02*
X012081Y007925D01*
X012081Y007933D02*
X011830Y007933D01*
X011848Y007942D02*
X012081Y007942D01*
X012081Y007950D02*
X011857Y007950D01*
X011857Y007959D02*
X012081Y007959D01*
X012081Y007967D02*
X011857Y007967D01*
X011857Y007976D02*
X012081Y007976D01*
X012081Y007984D02*
X011857Y007984D01*
X011857Y007993D02*
X012081Y007993D01*
X012081Y008001D02*
X011857Y008001D01*
X011857Y008010D02*
X012081Y008010D01*
X012081Y008018D02*
X011857Y008018D01*
X011857Y008027D02*
X012081Y008027D01*
X012081Y008035D02*
X011857Y008035D01*
X011857Y008044D02*
X012081Y008044D01*
X012081Y008052D02*
X011857Y008052D01*
X011857Y008061D02*
X012081Y008061D01*
X012081Y008069D02*
X011857Y008069D01*
X011857Y008078D02*
X012081Y008078D01*
X012081Y008086D02*
X011857Y008086D01*
X011857Y008095D02*
X012081Y008095D01*
X012081Y008103D02*
X011857Y008103D01*
X011857Y008112D02*
X012081Y008112D01*
X012081Y008120D02*
X011857Y008120D01*
X011857Y008129D02*
X012081Y008129D01*
X012081Y008137D02*
X011857Y008137D01*
X011857Y008146D02*
X012081Y008146D01*
X012081Y008154D02*
X011857Y008154D01*
X011857Y008163D02*
X012081Y008163D01*
X012081Y008171D02*
X011857Y008171D01*
X011857Y008180D02*
X012081Y008180D01*
X012081Y008188D02*
X011857Y008188D01*
X011857Y008197D02*
X012081Y008197D01*
X012081Y008205D02*
X011857Y008205D01*
X011857Y008214D02*
X012081Y008214D01*
X012081Y008222D02*
X011857Y008222D01*
X011856Y008231D02*
X012081Y008231D01*
X012081Y008239D02*
X011846Y008239D01*
X011836Y008248D02*
X012081Y008248D01*
X012081Y008256D02*
X011826Y008256D01*
X011816Y008265D02*
X012081Y008265D01*
X011777Y008282D02*
X011581Y008282D01*
X011577Y008282D02*
X011305Y008282D01*
X011305Y008290D02*
X011581Y008290D01*
X011603Y008299D02*
X011305Y008299D01*
X011305Y008307D02*
X011603Y008307D01*
X011603Y008316D02*
X011305Y008316D01*
X011305Y008324D02*
X011603Y008324D01*
X011603Y008333D02*
X011305Y008333D01*
X011305Y008341D02*
X011603Y008341D01*
X011603Y008350D02*
X011305Y008350D01*
X011305Y008358D02*
X011603Y008358D01*
X011603Y008367D02*
X011305Y008367D01*
X011305Y008375D02*
X011603Y008375D01*
X011603Y008384D02*
X011305Y008384D01*
X011305Y008392D02*
X011612Y008392D01*
X011621Y008401D02*
X011305Y008401D01*
X011305Y008409D02*
X011630Y008409D01*
M02*
