G75*
%MOIN*%
%OFA0B0*%
%FSLAX24Y24*%
%IPPOS*%
%LPD*%
%AMOC8*
5,1,8,0,0,1.08239X$1,22.5*
%
%ADD10C,0.0000*%
%ADD11C,0.1000*%
%ADD12C,0.0800*%
%ADD13R,0.0800X0.0800*%
%ADD14R,0.0740X0.0740*%
%ADD15C,0.0740*%
%ADD16C,0.0160*%
%ADD17C,0.0100*%
%ADD18C,0.0400*%
D10*
X008205Y007100D02*
X008205Y016100D01*
X017705Y016100D01*
X017705Y007100D01*
X008205Y007100D01*
X008555Y008100D02*
X008557Y008150D01*
X008563Y008200D01*
X008573Y008250D01*
X008586Y008298D01*
X008603Y008346D01*
X008624Y008392D01*
X008648Y008436D01*
X008676Y008478D01*
X008707Y008518D01*
X008741Y008555D01*
X008778Y008590D01*
X008817Y008621D01*
X008858Y008650D01*
X008902Y008675D01*
X008948Y008697D01*
X008995Y008715D01*
X009043Y008729D01*
X009092Y008740D01*
X009142Y008747D01*
X009192Y008750D01*
X009243Y008749D01*
X009293Y008744D01*
X009343Y008735D01*
X009391Y008723D01*
X009439Y008706D01*
X009485Y008686D01*
X009530Y008663D01*
X009573Y008636D01*
X009613Y008606D01*
X009651Y008573D01*
X009686Y008537D01*
X009719Y008498D01*
X009748Y008457D01*
X009774Y008414D01*
X009797Y008369D01*
X009816Y008322D01*
X009831Y008274D01*
X009843Y008225D01*
X009851Y008175D01*
X009855Y008125D01*
X009855Y008075D01*
X009851Y008025D01*
X009843Y007975D01*
X009831Y007926D01*
X009816Y007878D01*
X009797Y007831D01*
X009774Y007786D01*
X009748Y007743D01*
X009719Y007702D01*
X009686Y007663D01*
X009651Y007627D01*
X009613Y007594D01*
X009573Y007564D01*
X009530Y007537D01*
X009485Y007514D01*
X009439Y007494D01*
X009391Y007477D01*
X009343Y007465D01*
X009293Y007456D01*
X009243Y007451D01*
X009192Y007450D01*
X009142Y007453D01*
X009092Y007460D01*
X009043Y007471D01*
X008995Y007485D01*
X008948Y007503D01*
X008902Y007525D01*
X008858Y007550D01*
X008817Y007579D01*
X008778Y007610D01*
X008741Y007645D01*
X008707Y007682D01*
X008676Y007722D01*
X008648Y007764D01*
X008624Y007808D01*
X008603Y007854D01*
X008586Y007902D01*
X008573Y007950D01*
X008563Y008000D01*
X008557Y008050D01*
X008555Y008100D01*
X013305Y008100D02*
X013307Y008150D01*
X013313Y008200D01*
X013323Y008250D01*
X013336Y008298D01*
X013353Y008346D01*
X013374Y008392D01*
X013398Y008436D01*
X013426Y008478D01*
X013457Y008518D01*
X013491Y008555D01*
X013528Y008590D01*
X013567Y008621D01*
X013608Y008650D01*
X013652Y008675D01*
X013698Y008697D01*
X013745Y008715D01*
X013793Y008729D01*
X013842Y008740D01*
X013892Y008747D01*
X013942Y008750D01*
X013993Y008749D01*
X014043Y008744D01*
X014093Y008735D01*
X014141Y008723D01*
X014189Y008706D01*
X014235Y008686D01*
X014280Y008663D01*
X014323Y008636D01*
X014363Y008606D01*
X014401Y008573D01*
X014436Y008537D01*
X014469Y008498D01*
X014498Y008457D01*
X014524Y008414D01*
X014547Y008369D01*
X014566Y008322D01*
X014581Y008274D01*
X014593Y008225D01*
X014601Y008175D01*
X014605Y008125D01*
X014605Y008075D01*
X014601Y008025D01*
X014593Y007975D01*
X014581Y007926D01*
X014566Y007878D01*
X014547Y007831D01*
X014524Y007786D01*
X014498Y007743D01*
X014469Y007702D01*
X014436Y007663D01*
X014401Y007627D01*
X014363Y007594D01*
X014323Y007564D01*
X014280Y007537D01*
X014235Y007514D01*
X014189Y007494D01*
X014141Y007477D01*
X014093Y007465D01*
X014043Y007456D01*
X013993Y007451D01*
X013942Y007450D01*
X013892Y007453D01*
X013842Y007460D01*
X013793Y007471D01*
X013745Y007485D01*
X013698Y007503D01*
X013652Y007525D01*
X013608Y007550D01*
X013567Y007579D01*
X013528Y007610D01*
X013491Y007645D01*
X013457Y007682D01*
X013426Y007722D01*
X013398Y007764D01*
X013374Y007808D01*
X013353Y007854D01*
X013336Y007902D01*
X013323Y007950D01*
X013313Y008000D01*
X013307Y008050D01*
X013305Y008100D01*
X013305Y015100D02*
X013307Y015150D01*
X013313Y015200D01*
X013323Y015250D01*
X013336Y015298D01*
X013353Y015346D01*
X013374Y015392D01*
X013398Y015436D01*
X013426Y015478D01*
X013457Y015518D01*
X013491Y015555D01*
X013528Y015590D01*
X013567Y015621D01*
X013608Y015650D01*
X013652Y015675D01*
X013698Y015697D01*
X013745Y015715D01*
X013793Y015729D01*
X013842Y015740D01*
X013892Y015747D01*
X013942Y015750D01*
X013993Y015749D01*
X014043Y015744D01*
X014093Y015735D01*
X014141Y015723D01*
X014189Y015706D01*
X014235Y015686D01*
X014280Y015663D01*
X014323Y015636D01*
X014363Y015606D01*
X014401Y015573D01*
X014436Y015537D01*
X014469Y015498D01*
X014498Y015457D01*
X014524Y015414D01*
X014547Y015369D01*
X014566Y015322D01*
X014581Y015274D01*
X014593Y015225D01*
X014601Y015175D01*
X014605Y015125D01*
X014605Y015075D01*
X014601Y015025D01*
X014593Y014975D01*
X014581Y014926D01*
X014566Y014878D01*
X014547Y014831D01*
X014524Y014786D01*
X014498Y014743D01*
X014469Y014702D01*
X014436Y014663D01*
X014401Y014627D01*
X014363Y014594D01*
X014323Y014564D01*
X014280Y014537D01*
X014235Y014514D01*
X014189Y014494D01*
X014141Y014477D01*
X014093Y014465D01*
X014043Y014456D01*
X013993Y014451D01*
X013942Y014450D01*
X013892Y014453D01*
X013842Y014460D01*
X013793Y014471D01*
X013745Y014485D01*
X013698Y014503D01*
X013652Y014525D01*
X013608Y014550D01*
X013567Y014579D01*
X013528Y014610D01*
X013491Y014645D01*
X013457Y014682D01*
X013426Y014722D01*
X013398Y014764D01*
X013374Y014808D01*
X013353Y014854D01*
X013336Y014902D01*
X013323Y014950D01*
X013313Y015000D01*
X013307Y015050D01*
X013305Y015100D01*
X008555Y015100D02*
X008557Y015150D01*
X008563Y015200D01*
X008573Y015250D01*
X008586Y015298D01*
X008603Y015346D01*
X008624Y015392D01*
X008648Y015436D01*
X008676Y015478D01*
X008707Y015518D01*
X008741Y015555D01*
X008778Y015590D01*
X008817Y015621D01*
X008858Y015650D01*
X008902Y015675D01*
X008948Y015697D01*
X008995Y015715D01*
X009043Y015729D01*
X009092Y015740D01*
X009142Y015747D01*
X009192Y015750D01*
X009243Y015749D01*
X009293Y015744D01*
X009343Y015735D01*
X009391Y015723D01*
X009439Y015706D01*
X009485Y015686D01*
X009530Y015663D01*
X009573Y015636D01*
X009613Y015606D01*
X009651Y015573D01*
X009686Y015537D01*
X009719Y015498D01*
X009748Y015457D01*
X009774Y015414D01*
X009797Y015369D01*
X009816Y015322D01*
X009831Y015274D01*
X009843Y015225D01*
X009851Y015175D01*
X009855Y015125D01*
X009855Y015075D01*
X009851Y015025D01*
X009843Y014975D01*
X009831Y014926D01*
X009816Y014878D01*
X009797Y014831D01*
X009774Y014786D01*
X009748Y014743D01*
X009719Y014702D01*
X009686Y014663D01*
X009651Y014627D01*
X009613Y014594D01*
X009573Y014564D01*
X009530Y014537D01*
X009485Y014514D01*
X009439Y014494D01*
X009391Y014477D01*
X009343Y014465D01*
X009293Y014456D01*
X009243Y014451D01*
X009192Y014450D01*
X009142Y014453D01*
X009092Y014460D01*
X009043Y014471D01*
X008995Y014485D01*
X008948Y014503D01*
X008902Y014525D01*
X008858Y014550D01*
X008817Y014579D01*
X008778Y014610D01*
X008741Y014645D01*
X008707Y014682D01*
X008676Y014722D01*
X008648Y014764D01*
X008624Y014808D01*
X008603Y014854D01*
X008586Y014902D01*
X008573Y014950D01*
X008563Y015000D01*
X008557Y015050D01*
X008555Y015100D01*
D11*
X011554Y012584D03*
X012223Y013569D03*
X008955Y011600D03*
X010333Y009828D03*
X013325Y009946D03*
D12*
X016805Y010222D03*
X016805Y012978D03*
X016805Y014356D03*
D13*
X016805Y011600D03*
X016805Y008844D03*
D14*
X014955Y009600D03*
D15*
X014955Y010600D03*
X014955Y011600D03*
X014955Y012600D03*
X014955Y013600D03*
D16*
X015455Y013100D02*
X015785Y012810D01*
X015785Y010850D01*
X015535Y010600D01*
X014955Y010600D01*
X014955Y009600D02*
X013055Y011600D01*
X008955Y011600D01*
X011554Y012584D02*
X014939Y012584D01*
X014955Y012600D01*
X014305Y013100D02*
X013835Y013570D01*
X012223Y013569D01*
X012505Y011100D02*
X012502Y010533D01*
X013005Y010200D01*
X013325Y009946D01*
D17*
X014305Y013100D02*
X015455Y013100D01*
D18*
X012505Y011100D03*
M02*
