G75*
%MOIN*%
%OFA0B0*%
%FSLAX24Y24*%
%IPPOS*%
%LPD*%
%AMOC8*
5,1,8,0,0,1.08239X$1,22.5*
%
%ADD10C,0.1000*%
%ADD11C,0.0800*%
%ADD12R,0.0800X0.0800*%
%ADD13R,0.0740X0.0740*%
%ADD14C,0.0740*%
%ADD15C,0.0160*%
%ADD16C,0.0400*%
D10*
X010333Y009828D03*
X008955Y011600D03*
X011554Y012584D03*
X012223Y013569D03*
X013325Y009946D03*
D11*
X016805Y010222D03*
X016805Y012978D03*
X016805Y014356D03*
D12*
X016805Y011600D03*
X016805Y008844D03*
D13*
X014955Y009600D03*
D14*
X014955Y010600D03*
X014955Y011600D03*
X014955Y012600D03*
X014955Y013600D03*
D15*
X015711Y014356D01*
X016805Y014356D01*
X014955Y013600D02*
X014865Y013600D01*
X014075Y012810D01*
X012505Y011100D01*
X013685Y011600D02*
X015155Y011600D01*
X016805Y011600D01*
X016305Y012600D02*
X016683Y012978D01*
X016805Y012978D01*
X016305Y012600D02*
X014955Y012600D01*
X014955Y011600D02*
X015155Y011600D01*
X013685Y011600D02*
X011913Y009828D01*
X010333Y009828D01*
X014955Y009600D02*
X015711Y008844D01*
X016805Y008844D01*
X016805Y010222D02*
X016427Y010600D01*
X014955Y010600D01*
D16*
X012505Y011100D03*
M02*
