G75*
%MOIN*%
%OFA0B0*%
%FSLAX24Y24*%
%IPPOS*%
%LPD*%
%AMOC8*
5,1,8,0,0,1.08239X$1,22.5*
%
%ADD10C,0.0040*%
%ADD11C,0.0030*%
%ADD12C,0.0080*%
%ADD13C,0.0010*%
D10*
X010372Y008295D02*
X010429Y008352D01*
X010429Y008579D01*
X010485Y008522D02*
X010372Y008522D01*
X010608Y008522D02*
X010608Y008295D01*
X010779Y008295D01*
X010835Y008352D01*
X010835Y008522D01*
X010958Y008465D02*
X011015Y008522D01*
X011129Y008522D01*
X011185Y008465D01*
X011185Y008352D01*
X011129Y008295D01*
X011015Y008295D01*
X010958Y008352D01*
X010958Y008465D01*
X011129Y008752D02*
X011072Y008808D01*
X011072Y009092D01*
X011072Y009205D02*
X011072Y009262D01*
X010895Y009092D02*
X010782Y009092D01*
X010725Y009035D01*
X010725Y008865D01*
X010895Y008865D01*
X010952Y008922D01*
X010895Y008978D01*
X010725Y008978D01*
X010602Y008922D02*
X010545Y008865D01*
X010375Y008865D01*
X010252Y008865D02*
X010252Y009205D01*
X010375Y009092D02*
X010545Y009092D01*
X010602Y009035D01*
X010602Y008922D01*
X010252Y008978D02*
X010082Y009092D01*
X010252Y008978D02*
X010082Y008865D01*
X011129Y008752D02*
X011185Y008752D01*
X011308Y008922D02*
X011308Y009035D01*
X011365Y009092D01*
X011478Y009092D01*
X011535Y009035D01*
X011535Y008922D01*
X011478Y008865D01*
X011365Y008865D01*
X011308Y008922D01*
X011658Y008978D02*
X011658Y009035D01*
X011715Y009092D01*
X011828Y009092D01*
X011885Y009035D01*
X011885Y008922D01*
X011828Y008865D01*
X011715Y008865D01*
X011658Y008978D02*
X011885Y008978D01*
X012006Y009092D02*
X012063Y009092D01*
X012177Y008978D01*
X012177Y008865D02*
X012177Y009092D01*
X012300Y009035D02*
X012300Y008978D01*
X012527Y008978D01*
X012527Y008922D02*
X012527Y009035D01*
X012470Y009092D01*
X012356Y009092D01*
X012300Y009035D01*
X012356Y008865D02*
X012470Y008865D01*
X012527Y008922D01*
X012646Y008865D02*
X012703Y008922D01*
X012703Y009149D01*
X012760Y009092D02*
X012646Y009092D01*
X012883Y009149D02*
X012940Y009205D01*
X013053Y009205D01*
X013110Y009149D01*
X013110Y009092D01*
X013053Y009035D01*
X012940Y009035D01*
X012883Y008978D01*
X012883Y008922D01*
X012940Y008865D01*
X013053Y008865D01*
X013110Y008922D01*
X012818Y008635D02*
X012648Y008635D01*
X012591Y008579D01*
X012591Y008522D01*
X012648Y008465D01*
X012818Y008465D01*
X012818Y008295D02*
X012648Y008295D01*
X012591Y008352D01*
X012591Y008408D01*
X012648Y008465D01*
X012468Y008408D02*
X012355Y008522D01*
X012298Y008522D01*
X012177Y008465D02*
X012120Y008522D01*
X012006Y008522D01*
X011950Y008465D01*
X011950Y008408D01*
X012177Y008408D01*
X012177Y008352D02*
X012177Y008465D01*
X012177Y008352D02*
X012120Y008295D01*
X012006Y008295D01*
X011827Y008352D02*
X011770Y008408D01*
X011600Y008408D01*
X011600Y008465D02*
X011600Y008295D01*
X011770Y008295D01*
X011827Y008352D01*
X011770Y008522D02*
X011657Y008522D01*
X011600Y008465D01*
X011477Y008408D02*
X011307Y008522D01*
X011477Y008635D02*
X011477Y008295D01*
X011477Y008408D02*
X011307Y008295D01*
X012468Y008295D02*
X012468Y008522D01*
X012818Y008635D02*
X012818Y008295D01*
D11*
X014020Y009010D02*
X014290Y009010D01*
X014200Y009055D02*
X014200Y009145D01*
X014155Y009190D01*
X014020Y009190D01*
X014065Y009331D02*
X014020Y009376D01*
X014065Y009331D02*
X014245Y009331D01*
X014200Y009286D02*
X014200Y009376D01*
X014200Y009470D02*
X014200Y009560D01*
X014245Y009515D02*
X014065Y009515D01*
X014020Y009560D01*
X014020Y009654D02*
X014020Y009789D01*
X014065Y009835D01*
X014155Y009835D01*
X014200Y009789D01*
X014200Y009654D01*
X013930Y009654D01*
X014020Y009931D02*
X014020Y010066D01*
X014065Y010111D01*
X014110Y010066D01*
X014110Y009976D01*
X014155Y009931D01*
X014200Y009976D01*
X014200Y010111D01*
X014200Y010207D02*
X014155Y010207D01*
X014155Y010252D01*
X014200Y010252D01*
X014200Y010207D01*
X014065Y010207D02*
X014020Y010207D01*
X014020Y010252D01*
X014065Y010252D01*
X014065Y010207D01*
X014020Y010345D02*
X014290Y010525D01*
X014290Y010801D02*
X014020Y010621D01*
X014065Y010897D02*
X014110Y010942D01*
X014110Y011078D01*
X014155Y011078D02*
X014020Y011078D01*
X014020Y010942D01*
X014065Y010897D01*
X014200Y010942D02*
X014200Y011033D01*
X014155Y011078D01*
X014155Y011174D02*
X014065Y011174D01*
X014020Y011219D01*
X014020Y011354D01*
X014020Y011450D02*
X014200Y011450D01*
X014110Y011450D02*
X014200Y011540D01*
X014200Y011585D01*
X014155Y011680D02*
X014065Y011680D01*
X014020Y011725D01*
X014020Y011815D01*
X014065Y011860D01*
X014155Y011860D01*
X014200Y011815D01*
X014200Y011725D01*
X014155Y011680D01*
X014200Y011956D02*
X014200Y012091D01*
X014155Y012136D01*
X014065Y012136D01*
X014020Y012091D01*
X014020Y011956D01*
X014290Y011956D01*
X014155Y012233D02*
X014065Y012233D01*
X014020Y012278D01*
X014020Y012368D01*
X014065Y012413D01*
X014155Y012413D01*
X014200Y012368D01*
X014200Y012278D01*
X014155Y012233D01*
X014200Y012509D02*
X014200Y012599D01*
X014245Y012554D02*
X014065Y012554D01*
X014020Y012599D01*
X014020Y012693D02*
X014020Y012783D01*
X014020Y012738D02*
X014200Y012738D01*
X014200Y012693D01*
X014290Y012738D02*
X014335Y012738D01*
X014155Y012877D02*
X014200Y012922D01*
X014200Y013057D01*
X014065Y013153D02*
X014065Y013198D01*
X014020Y013198D01*
X014020Y013153D01*
X014065Y013153D01*
X014020Y013057D02*
X014020Y012922D01*
X014065Y012877D01*
X014155Y012877D01*
X014155Y013291D02*
X014065Y013291D01*
X014020Y013337D01*
X014020Y013472D01*
X014065Y013568D02*
X014020Y013613D01*
X014020Y013703D01*
X014065Y013748D01*
X014155Y013748D01*
X014200Y013703D01*
X014200Y013613D01*
X014155Y013568D01*
X014065Y013568D01*
X014200Y013472D02*
X014200Y013337D01*
X014155Y013291D01*
X014200Y013844D02*
X014020Y013844D01*
X014020Y013934D02*
X014155Y013934D01*
X014200Y013979D01*
X014155Y014024D01*
X014020Y014024D01*
X014155Y013934D02*
X014200Y013889D01*
X014200Y013844D01*
X014200Y011354D02*
X014200Y011219D01*
X014155Y011174D01*
X014200Y009055D02*
X014155Y009010D01*
D12*
X014455Y009100D02*
X015455Y009100D01*
X015455Y014100D01*
X014455Y014100D01*
X014455Y009100D01*
X015467Y010911D02*
X015467Y015045D01*
X017687Y015045D01*
X017687Y010911D01*
X018222Y010911D01*
X018222Y015045D01*
X017687Y015045D01*
X017687Y010911D02*
X015467Y010911D01*
D13*
X012055Y010478D02*
X012055Y009550D01*
X011781Y009550D01*
X011781Y009820D01*
X011831Y009846D01*
X011831Y010128D01*
X011783Y010168D01*
X011783Y010186D01*
X011583Y010186D01*
X011583Y010170D01*
X011757Y010170D01*
X011779Y010170D01*
X011779Y010192D01*
X011757Y010192D01*
X011757Y010284D01*
X011729Y010310D01*
X011603Y010310D01*
X011581Y010288D01*
X011581Y010170D01*
X011551Y010170D01*
X011503Y010130D01*
X011503Y009846D01*
X011553Y009822D01*
X011553Y009548D01*
X011279Y009548D01*
X011279Y010478D01*
X012055Y010478D01*
X012055Y010475D02*
X011279Y010475D01*
X011279Y010466D02*
X012055Y010466D01*
X012055Y010458D02*
X011279Y010458D01*
X011279Y010449D02*
X012055Y010449D01*
X012055Y010441D02*
X011279Y010441D01*
X011279Y010432D02*
X012055Y010432D01*
X012055Y010424D02*
X011279Y010424D01*
X011279Y010415D02*
X012055Y010415D01*
X012055Y010407D02*
X011279Y010407D01*
X011279Y010398D02*
X012055Y010398D01*
X012055Y010390D02*
X011279Y010390D01*
X011279Y010381D02*
X012055Y010381D01*
X012055Y010373D02*
X011279Y010373D01*
X011279Y010364D02*
X012055Y010364D01*
X012055Y010356D02*
X011279Y010356D01*
X011279Y010347D02*
X012055Y010347D01*
X012055Y010339D02*
X011279Y010339D01*
X011279Y010330D02*
X012055Y010330D01*
X012055Y010322D02*
X011279Y010322D01*
X011279Y010313D02*
X012055Y010313D01*
X012055Y010305D02*
X011735Y010305D01*
X011744Y010296D02*
X012055Y010296D01*
X012055Y010288D02*
X011753Y010288D01*
X011757Y010279D02*
X012055Y010279D01*
X012055Y010271D02*
X011757Y010271D01*
X011757Y010262D02*
X012055Y010262D01*
X012055Y010254D02*
X011757Y010254D01*
X011757Y010245D02*
X012055Y010245D01*
X012055Y010237D02*
X011757Y010237D01*
X011757Y010228D02*
X012055Y010228D01*
X012055Y010220D02*
X011757Y010220D01*
X011757Y010211D02*
X012055Y010211D01*
X012055Y010203D02*
X011757Y010203D01*
X011757Y010194D02*
X012055Y010194D01*
X012055Y010186D02*
X011783Y010186D01*
X011779Y010186D02*
X011583Y010186D01*
X011581Y010186D02*
X011279Y010186D01*
X011279Y010194D02*
X011581Y010194D01*
X011581Y010203D02*
X011279Y010203D01*
X011279Y010211D02*
X011581Y010211D01*
X011581Y010220D02*
X011279Y010220D01*
X011279Y010228D02*
X011581Y010228D01*
X011581Y010237D02*
X011279Y010237D01*
X011279Y010245D02*
X011581Y010245D01*
X011581Y010254D02*
X011279Y010254D01*
X011279Y010262D02*
X011581Y010262D01*
X011581Y010271D02*
X011279Y010271D01*
X011279Y010279D02*
X011581Y010279D01*
X011581Y010288D02*
X011279Y010288D01*
X011279Y010296D02*
X011589Y010296D01*
X011598Y010305D02*
X011279Y010305D01*
X011279Y010177D02*
X011581Y010177D01*
X011583Y010177D02*
X011779Y010177D01*
X011783Y010177D02*
X012055Y010177D01*
X012055Y010169D02*
X011783Y010169D01*
X011793Y010160D02*
X012055Y010160D01*
X012055Y010152D02*
X011803Y010152D01*
X011813Y010143D02*
X012055Y010143D01*
X012055Y010135D02*
X011823Y010135D01*
X011831Y010126D02*
X012055Y010126D01*
X012055Y010118D02*
X011831Y010118D01*
X011831Y010109D02*
X012055Y010109D01*
X012055Y010101D02*
X011831Y010101D01*
X011831Y010092D02*
X012055Y010092D01*
X012055Y010084D02*
X011831Y010084D01*
X011831Y010075D02*
X012055Y010075D01*
X012055Y010067D02*
X011831Y010067D01*
X011831Y010058D02*
X012055Y010058D01*
X012055Y010050D02*
X011831Y010050D01*
X011831Y010041D02*
X012055Y010041D01*
X012055Y010033D02*
X011831Y010033D01*
X011831Y010024D02*
X012055Y010024D01*
X012055Y010016D02*
X011831Y010016D01*
X011831Y010007D02*
X012055Y010007D01*
X012055Y009999D02*
X011831Y009999D01*
X011831Y009990D02*
X012055Y009990D01*
X012055Y009982D02*
X011831Y009982D01*
X011831Y009973D02*
X012055Y009973D01*
X012055Y009965D02*
X011831Y009965D01*
X011831Y009956D02*
X012055Y009956D01*
X012055Y009948D02*
X011831Y009948D01*
X011831Y009939D02*
X012055Y009939D01*
X012055Y009931D02*
X011831Y009931D01*
X011831Y009922D02*
X012055Y009922D01*
X012055Y009914D02*
X011831Y009914D01*
X011831Y009905D02*
X012055Y009905D01*
X012055Y009897D02*
X011831Y009897D01*
X011831Y009888D02*
X012055Y009888D01*
X012055Y009880D02*
X011831Y009880D01*
X011831Y009871D02*
X012055Y009871D01*
X012055Y009863D02*
X011831Y009863D01*
X011831Y009854D02*
X012055Y009854D01*
X012055Y009846D02*
X011830Y009846D01*
X011814Y009837D02*
X012055Y009837D01*
X012055Y009829D02*
X011798Y009829D01*
X011781Y009820D02*
X012055Y009820D01*
X012055Y009812D02*
X011781Y009812D01*
X011781Y009803D02*
X012055Y009803D01*
X012055Y009795D02*
X011781Y009795D01*
X011781Y009786D02*
X012055Y009786D01*
X012055Y009778D02*
X011781Y009778D01*
X011781Y009769D02*
X012055Y009769D01*
X012055Y009761D02*
X011781Y009761D01*
X011781Y009752D02*
X012055Y009752D01*
X012055Y009744D02*
X011781Y009744D01*
X011781Y009735D02*
X012055Y009735D01*
X012055Y009727D02*
X011781Y009727D01*
X011781Y009718D02*
X012055Y009718D01*
X012055Y009710D02*
X011781Y009710D01*
X011781Y009701D02*
X012055Y009701D01*
X012055Y009693D02*
X011781Y009693D01*
X011781Y009684D02*
X012055Y009684D01*
X012055Y009676D02*
X011781Y009676D01*
X011781Y009667D02*
X012055Y009667D01*
X012055Y009659D02*
X011781Y009659D01*
X011781Y009650D02*
X012055Y009650D01*
X012055Y009642D02*
X011781Y009642D01*
X011781Y009633D02*
X012055Y009633D01*
X012055Y009625D02*
X011781Y009625D01*
X011781Y009616D02*
X012055Y009616D01*
X012055Y009608D02*
X011781Y009608D01*
X011781Y009599D02*
X012055Y009599D01*
X012055Y009591D02*
X011781Y009591D01*
X011781Y009582D02*
X012055Y009582D01*
X012055Y009574D02*
X011781Y009574D01*
X011781Y009565D02*
X012055Y009565D01*
X012055Y009557D02*
X011781Y009557D01*
X011553Y009557D02*
X011279Y009557D01*
X011279Y009565D02*
X011553Y009565D01*
X011553Y009574D02*
X011279Y009574D01*
X011279Y009582D02*
X011553Y009582D01*
X011553Y009591D02*
X011279Y009591D01*
X011279Y009599D02*
X011553Y009599D01*
X011553Y009608D02*
X011279Y009608D01*
X011279Y009616D02*
X011553Y009616D01*
X011553Y009625D02*
X011279Y009625D01*
X011279Y009633D02*
X011553Y009633D01*
X011553Y009642D02*
X011279Y009642D01*
X011279Y009650D02*
X011553Y009650D01*
X011553Y009659D02*
X011279Y009659D01*
X011279Y009667D02*
X011553Y009667D01*
X011553Y009676D02*
X011279Y009676D01*
X011279Y009684D02*
X011553Y009684D01*
X011553Y009693D02*
X011279Y009693D01*
X011279Y009701D02*
X011553Y009701D01*
X011553Y009710D02*
X011279Y009710D01*
X011279Y009718D02*
X011553Y009718D01*
X011553Y009727D02*
X011279Y009727D01*
X011279Y009735D02*
X011553Y009735D01*
X011553Y009744D02*
X011279Y009744D01*
X011279Y009752D02*
X011553Y009752D01*
X011553Y009761D02*
X011279Y009761D01*
X011279Y009769D02*
X011553Y009769D01*
X011553Y009778D02*
X011279Y009778D01*
X011279Y009786D02*
X011553Y009786D01*
X011553Y009795D02*
X011279Y009795D01*
X011279Y009803D02*
X011553Y009803D01*
X011553Y009812D02*
X011279Y009812D01*
X011279Y009820D02*
X011553Y009820D01*
X011539Y009829D02*
X011279Y009829D01*
X011279Y009837D02*
X011522Y009837D01*
X011504Y009846D02*
X011279Y009846D01*
X011279Y009854D02*
X011503Y009854D01*
X011503Y009863D02*
X011279Y009863D01*
X011279Y009871D02*
X011503Y009871D01*
X011503Y009880D02*
X011279Y009880D01*
X011279Y009888D02*
X011503Y009888D01*
X011503Y009897D02*
X011279Y009897D01*
X011279Y009905D02*
X011503Y009905D01*
X011503Y009914D02*
X011279Y009914D01*
X011279Y009922D02*
X011503Y009922D01*
X011503Y009931D02*
X011279Y009931D01*
X011279Y009939D02*
X011503Y009939D01*
X011503Y009948D02*
X011279Y009948D01*
X011279Y009956D02*
X011503Y009956D01*
X011503Y009965D02*
X011279Y009965D01*
X011279Y009973D02*
X011503Y009973D01*
X011503Y009982D02*
X011279Y009982D01*
X011279Y009990D02*
X011503Y009990D01*
X011503Y009999D02*
X011279Y009999D01*
X011279Y010007D02*
X011503Y010007D01*
X011503Y010016D02*
X011279Y010016D01*
X011279Y010024D02*
X011503Y010024D01*
X011503Y010033D02*
X011279Y010033D01*
X011279Y010041D02*
X011503Y010041D01*
X011503Y010050D02*
X011279Y010050D01*
X011279Y010058D02*
X011503Y010058D01*
X011503Y010067D02*
X011279Y010067D01*
X011279Y010075D02*
X011503Y010075D01*
X011503Y010084D02*
X011279Y010084D01*
X011279Y010092D02*
X011503Y010092D01*
X011503Y010101D02*
X011279Y010101D01*
X011279Y010109D02*
X011503Y010109D01*
X011503Y010118D02*
X011279Y010118D01*
X011279Y010126D02*
X011503Y010126D01*
X011509Y010135D02*
X011279Y010135D01*
X011279Y010143D02*
X011519Y010143D01*
X011529Y010152D02*
X011279Y010152D01*
X011279Y010160D02*
X011539Y010160D01*
X011549Y010169D02*
X011279Y010169D01*
X011279Y009548D02*
X011553Y009548D01*
M02*
