%
M48
M72
T01C0.0200
T02C0.0400
T03C0.0591
T04C0.1300
%
T01
X12505Y11100
T02
X14955Y10600
X14955Y9600
X16805Y10222
X16805Y8844
X16805Y11600
X14955Y11600
X14955Y12600
X14955Y13600
X16805Y12978
X16805Y14356
T03
X12223Y13569
X11554Y12584
X8955Y11600
X10333Y9828
X13325Y9946
T04
X9205Y8100
X13955Y8100
X13955Y15100
X9205Y15100
M30
